<svg xmlns="http://www.w3.org/2000/svg" viewBox="0 0 640 420"><rect width="640" height="420" rx="24" fill="#f8f3eb"/><rect x="34" y="34" width="572" height="352" rx="22" fill="#fffdf9" stroke="#e5d6c2" stroke-width="8"/><path d="M320 310 L320 150" stroke="#6b8f57" stroke-width="10" fill="none" stroke-linecap="round"/><ellipse cx="248" cy="170" rx="9" ry="5" transform="rotate(0 248 170)" fill="#6f9363" /><ellipse cx="268" cy="164" rx="9" ry="5" transform="rotate(0 268 164)" fill="#6f9363" /><ellipse cx="254" cy="192" rx="9" ry="5" transform="rotate(0 254 192)" fill="#6f9363" /><ellipse cx="272" cy="188" rx="9" ry="5" transform="rotate(0 272 188)" fill="#6f9363" /><ellipse cx="218" cy="215" rx="9" ry="5" transform="rotate(17 218 215)" fill="#6f9363" /><ellipse cx="238" cy="209" rx="9" ry="5" transform="rotate(17 238 209)" fill="#6f9363" /><ellipse cx="224" cy="237" rx="9" ry="5" transform="rotate(17 224 237)" fill="#6f9363" /><ellipse cx="242" cy="233" rx="9" ry="5" transform="rotate(17 242 233)" fill="#6f9363" /><ellipse cx="253" cy="255" rx="9" ry="5" transform="rotate(34 253 255)" fill="#6f9363" /><ellipse cx="273" cy="249" rx="9" ry="5" transform="rotate(34 273 249)" fill="#6f9363" /><ellipse cx="259" cy="277" rx="9" ry="5" transform="rotate(34 259 277)" fill="#6f9363" /><ellipse cx="277" cy="273" rx="9" ry="5" transform="rotate(34 277 273)" fill="#6f9363" /><ellipse cx="368" cy="175" rx="9" ry="5" transform="rotate(1 368 175)" fill="#6f9363" /><ellipse cx="388" cy="169" rx="9" ry="5" transform="rotate(1 388 169)" fill="#6f9363" /><ellipse cx="374" cy="197" rx="9" ry="5" transform="rotate(1 374 197)" fill="#6f9363" /><ellipse cx="392" cy="193" rx="9" ry="5" transform="rotate(1 392 193)" fill="#6f9363" /><ellipse cx="393" cy="220" rx="9" ry="5" transform="rotate(18 393 220)" fill="#6f9363" /><ellipse cx="413" cy="214" rx="9" ry="5" transform="rotate(18 413 214)" fill="#6f9363" /><ellipse cx="399" cy="242" rx="9" ry="5" transform="rotate(18 399 242)" fill="#6f9363" /><ellipse cx="417" cy="238" rx="9" ry="5" transform="rotate(18 417 238)" fill="#6f9363" /><ellipse cx="358" cy="260" rx="9" ry="5" transform="rotate(35 358 260)" fill="#6f9363" /><ellipse cx="378" cy="254" rx="9" ry="5" transform="rotate(35 378 254)" fill="#6f9363" /><ellipse cx="364" cy="282" rx="9" ry="5" transform="rotate(35 364 282)" fill="#6f9363" /><ellipse cx="382" cy="278" rx="9" ry="5" transform="rotate(35 382 278)" fill="#6f9363" /><ellipse cx="308" cy="195" rx="9" ry="5" transform="rotate(2 308 195)" fill="#6f9363" /><ellipse cx="328" cy="189" rx="9" ry="5" transform="rotate(2 328 189)" fill="#6f9363" /><ellipse cx="314" cy="217" rx="9" ry="5" transform="rotate(2 314 217)" fill="#6f9363" /><ellipse cx="332" cy="213" rx="9" ry="5" transform="rotate(2 332 213)" fill="#6f9363" /><ellipse cx="308" cy="240" rx="9" ry="5" transform="rotate(19 308 240)" fill="#6f9363" /><ellipse cx="328" cy="234" rx="9" ry="5" transform="rotate(19 328 234)" fill="#6f9363" /><ellipse cx="314" cy="262" rx="9" ry="5" transform="rotate(19 314 262)" fill="#6f9363" /><ellipse cx="332" cy="258" rx="9" ry="5" transform="rotate(19 332 258)" fill="#6f9363" /><rect x="306" y="305" width="28" height="40" rx="8" fill="#cba579"/><text x="320" y="72" text-anchor="middle" font-size="30" font-family="Arial" fill="#5f4c3e">Thymian</text><text x="320" y="364" text-anchor="middle" font-size="18" font-family="Arial" fill="#8c7765">würzig</text></svg>